<svg width="94" height="60" viewBox="0 0 94 60" fill="none" xmlns="http://www.w3.org/2000/svg">
<path d="M34.4131 36.0778L38.0727 37.5561C39.7591 38.2372 41.6204 38.2372 43.3068 37.5596L43.3173 37.5561C45.6754 36.6045 48.2749 36.6045 50.6365 37.5561C52.3299 38.2372 54.1912 38.2372 55.8811 37.5561L59.5442 36.0778V22.6649H34.4096V36.0778H34.4131ZM42.0787 30.0596H45.7454V25.1825L46.9804 23.9465L48.2119 25.1825V30.0596H51.8786L53.1416 34.9367H50.6785H48.2154H48.079V32.6368C48.079 32.0294 47.5892 31.5378 46.9839 31.5378C46.3786 31.5378 45.8888 32.0294 45.8888 32.6368V34.9367H45.8013H45.7489H43.2858H40.8192L42.0787 30.0596Z" fill="white"/>
<path d="M59.5442 38.9431L55.8811 40.4214C54.1912 41.1025 52.3299 41.1025 50.6365 40.4214C48.2784 39.4698 45.6754 39.4698 43.3173 40.4214L43.3068 40.4249C41.6169 41.1025 39.7591 41.1025 38.0727 40.4214L34.4096 38.9431V46.3272C34.4096 46.3272 34.1927 54.1608 46.9769 60C59.7611 54.1643 59.5442 46.3272 59.5442 46.3272V38.9431ZM53.1416 53.757H50.6785H50.5421V51.2711C50.5421 51.0218 50.4266 50.783 50.2237 50.6355C49.328 49.9719 48.3519 50.6004 48.3519 51.4572V53.757H48.2119H45.7489H45.6124V51.2711C45.6124 51.0218 45.4969 50.783 45.294 50.6355C44.3949 49.9719 43.4187 50.6004 43.4187 51.4572V53.757H43.2823H40.8192V45.6496L42.0507 44.4101L43.2858 45.6496V48.8799H45.7489V44.0028L46.9839 42.7669L48.2154 44.0028V48.8799H50.682V45.6496L51.91 44.4101L53.1451 45.6496V53.757H53.1416Z" fill="white"/>
<path d="M47.9531 6.10955L47.1379 3.48666L48.8067 2.96348L48.3519 1.50632L46.683 2.02949L46.0498 0L44.5978 0.456467L45.2311 2.48596L43.5622 3.00913L44.017 4.46629L45.6859 3.94312L46.3577 6.09902C40.6898 6.26405 35.9316 8.58496 34.4166 11.6959V16.3588H36.5193V18.4656H34.4166V20.2914H59.5512V18.4656H57.452V16.3588H59.5512V11.6959V11.6819C58.0573 8.62359 53.4845 6.34481 47.9531 6.10955ZM42.5406 18.4656H40.4379V16.3588H42.5406V18.4656ZM44.4754 14.533H44.4474L41.491 11.566L38.5976 14.4698C38.5941 13.2093 37.8209 12.1278 36.7223 11.6784C38.0308 10.0843 40.7807 8.6271 44.4754 8.1566V14.533ZM46.9804 18.8272C46.2002 18.8272 45.5705 18.1917 45.5705 17.4122C45.5705 16.6327 46.2037 15.9972 46.9804 15.9972C47.7571 15.9972 48.3904 16.6327 48.3904 17.4122C48.3904 18.1917 47.7571 18.8272 46.9804 18.8272ZM53.5195 18.4656H51.4168V16.3588H53.5195V18.4656ZM55.3598 14.4698L52.4664 11.5695L49.51 14.5365H49.482V8.1566C53.1871 8.62008 55.9546 10.0737 57.2701 11.6678C56.154 12.1032 55.3633 13.1917 55.3598 14.4698Z" fill="#D2B37C"/>
<path d="M89.8674 45.9234C90.8015 45.9234 91.7112 45.5898 92.4354 44.9719C93.3171 44.2169 93.8209 43.1179 93.8209 41.9557V41.7521C93.8209 40.5021 93.2016 39.3398 92.1625 38.6446C91.1269 37.9529 89.8184 37.823 88.6673 38.3075L82.3487 40.955C81.7749 39.9929 81.0087 37.3349 80.7288 36.3202C81.1731 36.1481 81.5965 35.934 81.9883 35.6776L83.1674 37.0435C84.1085 38.132 85.8124 38.0653 86.6696 36.9101L83.3738 34.4557C83.6677 34.1151 83.9266 33.7465 84.147 33.3497L88.356 34.4382C89.9828 35.007 91.7182 33.922 91.9211 32.205L84.8538 31.422C84.9342 31.0042 84.9797 30.5723 84.9797 30.1299C84.9797 30.0948 84.9762 30.0561 84.9762 30.021L90.1858 28.9466C92.257 28.4234 93.3101 26.1095 92.355 24.1959L84.5599 27.8125C84.3989 27.3771 84.1925 26.9627 83.9476 26.5765L88.6673 21.7064C90.5601 19.9122 90.3117 16.8223 88.1565 15.3546L79.6267 28.139C79.7037 28.1882 79.7772 28.2408 79.8471 28.3005C79.8716 28.3216 79.8961 28.3427 79.9206 28.3637C79.9626 28.4024 80.0046 28.441 80.0466 28.4796C80.0746 28.5077 80.1025 28.5393 80.1305 28.5709C80.162 28.606 80.1935 28.6446 80.225 28.6833C80.253 28.7184 80.281 28.757 80.3055 28.7956C80.33 28.8307 80.3509 28.8658 80.3719 28.9009C80.3999 28.9431 80.4279 28.9887 80.4489 29.0379C80.4629 29.066 80.4769 29.0976 80.4909 29.1257C80.5154 29.1783 80.5434 29.2345 80.5644 29.2907C80.5679 29.3012 80.5714 29.3153 80.5784 29.3258C80.6343 29.4768 80.6728 29.6313 80.6973 29.7963C80.7008 29.8104 80.7008 29.8279 80.7043 29.842C80.7183 29.9403 80.7253 30.0351 80.7253 30.1369C80.7253 30.2738 80.7078 30.4038 80.6868 30.5302C80.6798 30.5688 80.6763 30.6039 80.6693 30.6425C80.6448 30.7619 80.6064 30.8743 80.5644 30.9866C80.5469 31.0323 80.5294 31.0744 80.5084 31.12C80.4629 31.2149 80.4139 31.3061 80.358 31.3974C80.3265 31.4466 80.295 31.4887 80.2635 31.5344C80.2145 31.6011 80.162 31.6643 80.1095 31.724C80.0745 31.7626 80.0431 31.8012 80.0046 31.8363C79.9101 31.9276 79.8087 32.0154 79.7002 32.0892C79.6827 32.0997 79.6652 32.1102 79.6442 32.1208C79.5463 32.184 79.4448 32.2401 79.3363 32.2858C79.2978 32.3033 79.2559 32.3174 79.2139 32.3349C79.1194 32.37 79.0249 32.4016 78.927 32.4262C78.885 32.4368 78.843 32.4473 78.801 32.4543C78.6611 32.4789 78.5176 32.4965 78.3742 32.4965C78.2902 32.4965 78.2097 32.4929 78.1293 32.4824C78.1188 32.4824 78.1083 32.4789 78.0978 32.4789C78.0278 32.4719 77.9578 32.4613 77.8879 32.4438C77.8844 32.4438 77.8809 32.4403 77.8774 32.4403C77.6919 32.3981 77.5135 32.3349 77.3456 32.2542C77.3211 32.2436 77.2966 32.2296 77.2721 32.2191C77.1951 32.1769 77.1182 32.1313 77.0447 32.0821C76.9887 32.0435 76.9362 32.0049 76.8837 31.9592C76.8802 31.9557 76.8768 31.9522 76.8698 31.9487C76.7823 31.875 76.7018 31.7977 76.6283 31.7134C76.6039 31.6854 76.5759 31.6573 76.5514 31.6257C76.5479 31.6222 76.5444 31.6186 76.5444 31.6151C76.219 31.2113 76.0231 30.6952 76.0231 30.1334C76.0231 30.0316 76.0336 29.9297 76.0441 29.8314C76.0441 29.8279 76.0441 29.8244 76.0441 29.8209C76.0441 29.8104 76.0511 29.7963 76.0511 29.7858C76.0755 29.6278 76.114 29.4733 76.1665 29.3258C76.4429 28.4691 77.0867 27.4122 77.6814 26.5098C77.9753 26.1236 78.3392 25.6179 78.7136 25.0421L78.7171 25.0386C80.106 22.9073 81.621 19.8174 80.1095 18.1812L82.5621 15.3581L73.623 16.2043C72.0031 16.422 70.7086 18.0407 70.2082 19.6243H74.2352C75.1554 19.6243 76.0371 19.9859 76.6913 20.6285L77.1811 21.106H71.2683L71.8981 21.5695C72.9057 22.3069 74.1163 22.7036 75.3618 22.7036H77.4225C75.3863 23.901 71.2124 25.3476 69.5015 28.1847L63.5432 27.679L64.4319 24.5751L61.6295 22.8441V29.0414L68.6338 32.4824L73.8994 31.7942L63.6972 38.0231L64.4319 35.2633L61.6295 33.5323V39.2872V40.2493L63.0919 39.849C68.6093 38.4585 72.3005 39.0203 74.767 40.4529L67.5982 47.2752L71.6637 56.3799L67.6227 55.5723L66.6711 58.6516H75.4108C75.4108 58.6516 70.5161 53.4023 76.7053 50.955C76.7053 50.955 72.5769 50.5758 71.2264 47.5632L76.7053 47.3735C76.7053 47.3735 77.2686 43.6165 76.198 41.4922C80.0885 44.9684 79.6967 50.9234 79.6967 50.9234C88.5624 49.9929 89.7344 54.7858 89.9793 56.4431L85.62 55.5723L84.6683 58.6516H93.2156L89.8464 48.2443C86.0713 48.3637 84.7103 46.6924 84.3255 45.1088L89.2516 45.8883C89.458 45.9058 89.6645 45.9234 89.8674 45.9234ZM83.8007 42.7563L89.5245 40.3581C89.9968 40.1615 90.5111 40.2106 90.9345 40.495C91.3578 40.7795 91.6027 41.2359 91.6027 41.7486V41.9522C91.6027 42.4613 91.3823 42.9424 90.994 43.2759C90.6091 43.606 90.1018 43.7535 89.598 43.6727L83.8007 42.7563Z" fill="#D2B37C"/>
<path d="M25.5684 32.4753L32.2859 29.2344V22.837L29.4835 24.568L30.3441 27.5666L23.9135 28.3777C22.0942 24.5785 19.2113 22.851 19.2113 22.851L23.6372 22.8019L24.141 21.0989H20.4778L21.0411 19.6137H24.3019L24.8932 17.1172C24.7567 17.1277 24.3054 17.1382 24.169 17.1382C22.4056 17.1382 20.8102 16.422 19.6556 15.2632H13.1551L14.607 16.9802L11.7171 21.5835H13.8758L12.046 25.9339H14.1627L13.4805 30.9795L15.6217 31.2429L12.018 39.2379C11.9795 39.3433 11.934 39.4451 11.8816 39.5434L11.8781 39.5504C11.4022 40.4388 10.4716 41.0427 9.40098 41.0462C9.39398 41.0462 9.38699 41.0497 9.37999 41.0497C9.30302 41.0497 9.22605 41.0392 9.14908 41.0322C9.12808 41.0287 9.10709 41.0287 9.0861 41.0287C9.02312 41.0217 8.96365 41.0111 8.90067 41.0006C8.85169 40.9936 8.79921 40.983 8.75023 40.9725C8.70124 40.962 8.65226 40.9479 8.60678 40.9339C8.5403 40.9163 8.47733 40.8917 8.41435 40.8707C8.37936 40.8566 8.34788 40.8461 8.31289 40.8356C8.21493 40.7934 8.12046 40.7513 8.026 40.6986C8.0155 40.6916 8.00151 40.6846 7.99101 40.6776C7.90704 40.6284 7.82657 40.5757 7.7461 40.5196C7.72861 40.5055 7.71111 40.4915 7.69362 40.4809C7.61665 40.4212 7.53968 40.358 7.46621 40.2913C7.45921 40.2843 7.45221 40.2773 7.44521 40.2738C7.02187 39.87 6.72099 39.3398 6.60903 38.7429C6.60553 38.7183 6.60203 38.6937 6.59853 38.6691C6.58803 38.5919 6.57754 38.5181 6.57054 38.4409C6.56704 38.3917 6.56354 38.3391 6.56354 38.2899C6.56354 38.2653 6.56005 38.2443 6.56005 38.2197C6.56005 38.1916 6.56354 38.1635 6.56354 38.1354C6.56354 38.0757 6.56704 38.0125 6.57404 37.9528C6.57754 37.9142 6.58454 37.8791 6.58803 37.8405C6.61952 37.6017 6.6825 37.3665 6.77346 37.1382C6.77696 37.1277 6.78396 37.1137 6.78746 37.1031C6.80495 37.061 6.81895 37.0188 6.83994 36.9767L9.44646 31.5062C9.95727 30.4318 9.8873 29.1853 9.25404 28.1776C8.62078 27.1698 7.53268 26.5659 6.34313 26.5659H4.21592H0C0 28.2618 1.36799 29.6347 3.05786 29.6347C3.87305 29.6347 4.61127 29.3117 5.16057 28.792H5.20255C5.45096 28.5849 5.76584 28.4549 6.11571 28.4549C6.91341 28.4549 7.56067 29.1045 7.56067 29.9051C7.56067 29.9121 7.56067 29.9156 7.55717 29.9226C7.57467 30.1333 7.53618 30.344 7.44171 30.5441L4.83519 36.0146C4.07947 37.5982 4.18793 39.4276 5.11858 40.9128C6.04574 42.391 7.63764 43.2759 9.37649 43.2829C9.59691 44.9261 8.79221 48.0266 4.35937 48.2302L0.983131 58.6375H9.6179L8.66626 55.5582L4.22992 56.443C4.5483 54.7997 6.24516 49.9788 15.1353 50.9093C15.1353 50.9093 14.4076 44.9542 18.0358 41.4781C17.0596 43.5884 17.8293 47.2927 17.8293 47.2927L22.9724 47.549C21.6219 50.5652 17.4935 50.9409 17.4935 50.9409C23.6861 53.3882 18.788 58.6375 18.788 58.6375H27.6117L26.66 55.5582L22.5631 56.3763L26.7685 47.2506L19.4212 40.4212C21.7584 39.0062 25.341 38.4585 30.799 39.8313L32.2859 40.2386V33.5252L29.4835 35.2562L30.2112 37.9915L17.4795 31.4781L25.5684 32.4753Z" fill="#D2B37C"/>
</svg>
